<?xml version="1.0" encoding="utf-8"?>
<!-- Generator: Adobe Illustrator 23.0.1, SVG Export Plug-In . SVG Version: 6.00 Build 0)  -->
<svg version="1.1" id="Layer_1" xmlns="http://www.w3.org/2000/svg" xmlns:xlink="http://www.w3.org/1999/xlink" x="0px" y="0px"
	 viewBox="0 0 259 251" style="enable-background:new 0 0 259 251;" xml:space="preserve">
<g>
	<path style="fill:#FFFFFF;" d="M128.35,159.11L128.35,159.11c-18.78,0-34.01-15.23-34.01-34.01v-49.1
		c0-18.78,15.23-34.01,34.01-34.01h0c18.78,0,34.01,15.23,34.01,34.01v49.1C162.36,143.88,147.13,159.11,128.35,159.11z"/>
</g>
<rect x="86.03" y="205.76" style="fill:#FFFFFF;" width="84.64" height="7.38"/>
<rect x="124.66" y="177.81" style="fill:#FFFFFF;" width="7.38" height="33.35"/>
<path style="fill:#FFFFFF;" d="M128.35,179.92c-27.38,0-49.65-22.27-49.65-49.65v-36.7h5.27v36.7c0,24.47,19.91,44.37,44.37,44.37
	s44.37-19.91,44.37-44.37v-36.7H178v36.7C178,157.65,155.73,179.92,128.35,179.92z"/>
<circle style="fill:none;stroke:#FFFFFF;stroke-width:3;stroke-miterlimit:10;" cx="128" cy="125" r="118"/>
</svg>
